<mxfile host="app.diagrams.net" modified="2023-11-18T02:45:46.400Z" agent="Mozilla/5.0 (Windows NT 10.0; Win64; x64) AppleWebKit/537.36 (KHTML, like Gecko) Chrome/119.0.0.0 Safari/537.36" etag="c85lOld9RKxtsCc7WPbw" version="22.1.3" type="device">
  <diagram name="P치gina-1" id="v7N0s2Zn8JapTUPcx7Tw">
    <mxGraphModel dx="1193" dy="723" grid="1" gridSize="10" guides="1" tooltips="1" connect="1" arrows="1" fold="1" page="1" pageScale="1" pageWidth="827" pageHeight="1169" math="0" shadow="0">
      <root>
        <mxCell id="0" />
        <mxCell id="1" parent="0" />
        <mxCell id="lVu30ywv4T-iXP-hu-P--3" value="" style="edgeStyle=orthogonalEdgeStyle;rounded=0;orthogonalLoop=1;jettySize=auto;html=1;" edge="1" parent="1" source="lVu30ywv4T-iXP-hu-P--1" target="lVu30ywv4T-iXP-hu-P--2">
          <mxGeometry relative="1" as="geometry" />
        </mxCell>
        <mxCell id="lVu30ywv4T-iXP-hu-P--1" value="Inicio" style="ellipse;whiteSpace=wrap;html=1;fillColor=#6a00ff;fontColor=#ffffff;strokeColor=#3700CC;" vertex="1" parent="1">
          <mxGeometry x="270" y="90" width="120" height="80" as="geometry" />
        </mxCell>
        <mxCell id="lVu30ywv4T-iXP-hu-P--5" value="" style="edgeStyle=orthogonalEdgeStyle;rounded=0;orthogonalLoop=1;jettySize=auto;html=1;" edge="1" parent="1" source="lVu30ywv4T-iXP-hu-P--2" target="lVu30ywv4T-iXP-hu-P--4">
          <mxGeometry relative="1" as="geometry" />
        </mxCell>
        <mxCell id="lVu30ywv4T-iXP-hu-P--2" value="cal1,cal2,cal3,cal4,promedio float&lt;br&gt;nombre str" style="whiteSpace=wrap;html=1;fillColor=#6a00ff;strokeColor=#3700CC;fontColor=#ffffff;" vertex="1" parent="1">
          <mxGeometry x="220" y="210" width="220" height="60" as="geometry" />
        </mxCell>
        <mxCell id="lVu30ywv4T-iXP-hu-P--7" value="" style="edgeStyle=orthogonalEdgeStyle;rounded=0;orthogonalLoop=1;jettySize=auto;html=1;" edge="1" parent="1" source="lVu30ywv4T-iXP-hu-P--4" target="lVu30ywv4T-iXP-hu-P--6">
          <mxGeometry relative="1" as="geometry" />
        </mxCell>
        <mxCell id="lVu30ywv4T-iXP-hu-P--4" value="&quot;Ingresa el nombre del alumno&quot;" style="shape=document;whiteSpace=wrap;html=1;boundedLbl=1;fillColor=#6a00ff;fontColor=#ffffff;strokeColor=#3700CC;" vertex="1" parent="1">
          <mxGeometry x="270" y="320" width="120" height="80" as="geometry" />
        </mxCell>
        <mxCell id="lVu30ywv4T-iXP-hu-P--9" value="" style="edgeStyle=orthogonalEdgeStyle;rounded=0;orthogonalLoop=1;jettySize=auto;html=1;" edge="1" parent="1" source="lVu30ywv4T-iXP-hu-P--6" target="lVu30ywv4T-iXP-hu-P--8">
          <mxGeometry relative="1" as="geometry" />
        </mxCell>
        <mxCell id="lVu30ywv4T-iXP-hu-P--6" value="nombre" style="shape=parallelogram;perimeter=parallelogramPerimeter;whiteSpace=wrap;html=1;fixedSize=1;fillColor=#6a00ff;strokeColor=#3700CC;fontColor=#ffffff;" vertex="1" parent="1">
          <mxGeometry x="270" y="440" width="120" height="60" as="geometry" />
        </mxCell>
        <mxCell id="lVu30ywv4T-iXP-hu-P--12" value="" style="edgeStyle=orthogonalEdgeStyle;rounded=0;orthogonalLoop=1;jettySize=auto;html=1;" edge="1" parent="1" source="lVu30ywv4T-iXP-hu-P--8" target="lVu30ywv4T-iXP-hu-P--11">
          <mxGeometry relative="1" as="geometry" />
        </mxCell>
        <mxCell id="lVu30ywv4T-iXP-hu-P--8" value="&quot;Ingresa la calificaci칩n 1&quot;" style="shape=document;whiteSpace=wrap;html=1;boundedLbl=1;fillColor=#6a00ff;fontColor=#ffffff;strokeColor=#3700CC;" vertex="1" parent="1">
          <mxGeometry x="270" y="540" width="120" height="80" as="geometry" />
        </mxCell>
        <mxCell id="lVu30ywv4T-iXP-hu-P--14" value="" style="edgeStyle=orthogonalEdgeStyle;rounded=0;orthogonalLoop=1;jettySize=auto;html=1;" edge="1" parent="1" source="lVu30ywv4T-iXP-hu-P--11" target="lVu30ywv4T-iXP-hu-P--13">
          <mxGeometry relative="1" as="geometry" />
        </mxCell>
        <mxCell id="lVu30ywv4T-iXP-hu-P--11" value="cal1" style="shape=parallelogram;perimeter=parallelogramPerimeter;whiteSpace=wrap;html=1;fixedSize=1;fillColor=#6a00ff;strokeColor=#3700CC;fontColor=#ffffff;" vertex="1" parent="1">
          <mxGeometry x="270" y="660" width="120" height="60" as="geometry" />
        </mxCell>
        <mxCell id="lVu30ywv4T-iXP-hu-P--13" value="1" style="ellipse;whiteSpace=wrap;html=1;fillColor=#6a00ff;strokeColor=#3700CC;fontColor=#ffffff;" vertex="1" parent="1">
          <mxGeometry x="290" y="760" width="80" height="80" as="geometry" />
        </mxCell>
        <mxCell id="lVu30ywv4T-iXP-hu-P--22" value="" style="edgeStyle=orthogonalEdgeStyle;rounded=0;orthogonalLoop=1;jettySize=auto;html=1;" edge="1" parent="1" source="lVu30ywv4T-iXP-hu-P--15" target="lVu30ywv4T-iXP-hu-P--17">
          <mxGeometry relative="1" as="geometry" />
        </mxCell>
        <mxCell id="lVu30ywv4T-iXP-hu-P--15" value="1" style="ellipse;whiteSpace=wrap;html=1;fillColor=#6a00ff;strokeColor=#3700CC;fontColor=#ffffff;" vertex="1" parent="1">
          <mxGeometry x="630" y="90" width="80" height="80" as="geometry" />
        </mxCell>
        <mxCell id="lVu30ywv4T-iXP-hu-P--16" value="" style="edgeStyle=orthogonalEdgeStyle;rounded=0;orthogonalLoop=1;jettySize=auto;html=1;" edge="1" parent="1" source="lVu30ywv4T-iXP-hu-P--17" target="lVu30ywv4T-iXP-hu-P--18">
          <mxGeometry relative="1" as="geometry" />
        </mxCell>
        <mxCell id="lVu30ywv4T-iXP-hu-P--17" value="&quot;Ingresa la calificaci칩n 2&quot;" style="shape=document;whiteSpace=wrap;html=1;boundedLbl=1;fillColor=#6a00ff;fontColor=#ffffff;strokeColor=#3700CC;" vertex="1" parent="1">
          <mxGeometry x="610" y="210" width="120" height="80" as="geometry" />
        </mxCell>
        <mxCell id="lVu30ywv4T-iXP-hu-P--23" value="" style="edgeStyle=orthogonalEdgeStyle;rounded=0;orthogonalLoop=1;jettySize=auto;html=1;" edge="1" parent="1" source="lVu30ywv4T-iXP-hu-P--18" target="lVu30ywv4T-iXP-hu-P--20">
          <mxGeometry relative="1" as="geometry" />
        </mxCell>
        <mxCell id="lVu30ywv4T-iXP-hu-P--18" value="cal2" style="shape=parallelogram;perimeter=parallelogramPerimeter;whiteSpace=wrap;html=1;fixedSize=1;fillColor=#6a00ff;strokeColor=#3700CC;fontColor=#ffffff;" vertex="1" parent="1">
          <mxGeometry x="610" y="330" width="120" height="60" as="geometry" />
        </mxCell>
        <mxCell id="lVu30ywv4T-iXP-hu-P--19" value="" style="edgeStyle=orthogonalEdgeStyle;rounded=0;orthogonalLoop=1;jettySize=auto;html=1;" edge="1" parent="1" source="lVu30ywv4T-iXP-hu-P--20" target="lVu30ywv4T-iXP-hu-P--21">
          <mxGeometry relative="1" as="geometry" />
        </mxCell>
        <mxCell id="lVu30ywv4T-iXP-hu-P--20" value="&quot;Ingresa la calificaci칩n 3&quot;" style="shape=document;whiteSpace=wrap;html=1;boundedLbl=1;fillColor=#6a00ff;fontColor=#ffffff;strokeColor=#3700CC;" vertex="1" parent="1">
          <mxGeometry x="610" y="440" width="120" height="80" as="geometry" />
        </mxCell>
        <mxCell id="lVu30ywv4T-iXP-hu-P--25" value="" style="edgeStyle=orthogonalEdgeStyle;rounded=0;orthogonalLoop=1;jettySize=auto;html=1;" edge="1" parent="1" source="lVu30ywv4T-iXP-hu-P--21" target="lVu30ywv4T-iXP-hu-P--24">
          <mxGeometry relative="1" as="geometry" />
        </mxCell>
        <mxCell id="lVu30ywv4T-iXP-hu-P--21" value="cal3" style="shape=parallelogram;perimeter=parallelogramPerimeter;whiteSpace=wrap;html=1;fixedSize=1;fillColor=#6a00ff;strokeColor=#3700CC;fontColor=#ffffff;" vertex="1" parent="1">
          <mxGeometry x="610" y="560" width="120" height="60" as="geometry" />
        </mxCell>
        <mxCell id="lVu30ywv4T-iXP-hu-P--24" value="2" style="ellipse;whiteSpace=wrap;html=1;fillColor=#6a00ff;strokeColor=#3700CC;fontColor=#ffffff;" vertex="1" parent="1">
          <mxGeometry x="630" y="680" width="80" height="80" as="geometry" />
        </mxCell>
        <mxCell id="lVu30ywv4T-iXP-hu-P--36" value="" style="edgeStyle=orthogonalEdgeStyle;rounded=0;orthogonalLoop=1;jettySize=auto;html=1;" edge="1" parent="1" source="lVu30ywv4T-iXP-hu-P--26" target="lVu30ywv4T-iXP-hu-P--34">
          <mxGeometry relative="1" as="geometry" />
        </mxCell>
        <mxCell id="lVu30ywv4T-iXP-hu-P--26" value="2" style="ellipse;whiteSpace=wrap;html=1;fillColor=#6a00ff;strokeColor=#3700CC;fontColor=#ffffff;" vertex="1" parent="1">
          <mxGeometry x="890" y="100" width="80" height="80" as="geometry" />
        </mxCell>
        <mxCell id="lVu30ywv4T-iXP-hu-P--30" value="" style="edgeStyle=orthogonalEdgeStyle;rounded=0;orthogonalLoop=1;jettySize=auto;html=1;" edge="1" parent="1" source="lVu30ywv4T-iXP-hu-P--27" target="lVu30ywv4T-iXP-hu-P--29">
          <mxGeometry relative="1" as="geometry" />
        </mxCell>
        <mxCell id="lVu30ywv4T-iXP-hu-P--27" value="promedio=(cal1+cal2+cal3+cal4)/4" style="whiteSpace=wrap;html=1;fillColor=#6a00ff;strokeColor=#3700CC;fontColor=#ffffff;" vertex="1" parent="1">
          <mxGeometry x="810" y="480" width="240" height="60" as="geometry" />
        </mxCell>
        <mxCell id="lVu30ywv4T-iXP-hu-P--32" value="" style="edgeStyle=orthogonalEdgeStyle;rounded=0;orthogonalLoop=1;jettySize=auto;html=1;" edge="1" parent="1" source="lVu30ywv4T-iXP-hu-P--29" target="lVu30ywv4T-iXP-hu-P--31">
          <mxGeometry relative="1" as="geometry" />
        </mxCell>
        <mxCell id="lVu30ywv4T-iXP-hu-P--29" value="&quot;El promedio de &quot;,nombre, &quot; es de &quot;,promedio,&quot; aprobado? &quot;,promedio&amp;gt;=6" style="shape=document;whiteSpace=wrap;html=1;boundedLbl=1;fillColor=#6a00ff;fontColor=#ffffff;strokeColor=#3700CC;" vertex="1" parent="1">
          <mxGeometry x="850" y="600" width="160" height="100" as="geometry" />
        </mxCell>
        <mxCell id="lVu30ywv4T-iXP-hu-P--31" value="Fin" style="ellipse;whiteSpace=wrap;html=1;fillColor=#6a00ff;fontColor=#ffffff;strokeColor=#3700CC;" vertex="1" parent="1">
          <mxGeometry x="870" y="760" width="120" height="80" as="geometry" />
        </mxCell>
        <mxCell id="lVu30ywv4T-iXP-hu-P--33" value="" style="edgeStyle=orthogonalEdgeStyle;rounded=0;orthogonalLoop=1;jettySize=auto;html=1;" edge="1" parent="1" source="lVu30ywv4T-iXP-hu-P--34" target="lVu30ywv4T-iXP-hu-P--35">
          <mxGeometry relative="1" as="geometry" />
        </mxCell>
        <mxCell id="lVu30ywv4T-iXP-hu-P--34" value="&quot;Ingresa la calificaci칩n 4&quot;" style="shape=document;whiteSpace=wrap;html=1;boundedLbl=1;fillColor=#6a00ff;fontColor=#ffffff;strokeColor=#3700CC;" vertex="1" parent="1">
          <mxGeometry x="870" y="230" width="120" height="80" as="geometry" />
        </mxCell>
        <mxCell id="lVu30ywv4T-iXP-hu-P--37" value="" style="edgeStyle=orthogonalEdgeStyle;rounded=0;orthogonalLoop=1;jettySize=auto;html=1;" edge="1" parent="1" source="lVu30ywv4T-iXP-hu-P--35" target="lVu30ywv4T-iXP-hu-P--27">
          <mxGeometry relative="1" as="geometry" />
        </mxCell>
        <mxCell id="lVu30ywv4T-iXP-hu-P--35" value="cal4" style="shape=parallelogram;perimeter=parallelogramPerimeter;whiteSpace=wrap;html=1;fixedSize=1;fillColor=#6a00ff;strokeColor=#3700CC;fontColor=#ffffff;" vertex="1" parent="1">
          <mxGeometry x="870" y="350" width="120" height="60" as="geometry" />
        </mxCell>
      </root>
    </mxGraphModel>
  </diagram>
</mxfile>
